<?xml version="1.0" encoding="UTF-8"?>
<svg id="Layer_2" xmlns="http://www.w3.org/2000/svg" version="1.1" viewBox="0 0 1067.6 496.9">
  <!-- Generator: Adobe Illustrator 29.1.0, SVG Export Plug-In . SVG Version: 2.1.0 Build 142)  -->
  <defs>
    <style>
      .st0 {
        fill: #fffdfd;
      }

      .st1 {
        isolation: isolate;
      }

      .st2 {
        fill: #fff;
      }
    </style>
  </defs>
  <g id="Layer_1-2">
    <g class="st1">
      <g class="st1">
        <path class="st0" d="M314.6,419.3c-11.3,0-20.8-2.9-28.6-8.7-7.7-5.8-13.2-14-16.3-24.7-3.1-10.6-3.5-23.1-1.2-37.5,2.4-14.5,7-27,13.7-37.4,6.7-10.5,14.9-18.5,24.5-24.2,9.7-5.7,20.2-8.5,31.5-8.5s15.5,1.4,20.3,4.3c4.7,2.9,8.2,6.2,10.3,9.9,2.2,3.7,3.8,6.8,4.9,9.3h1.8l3.5-21.9h22.1l-22.6,136.5h-21.4l3.4-21.1h-2.6c-2,2.7-4.8,5.9-8.3,9.7-3.5,3.8-8.1,7.1-13.8,10-5.7,2.9-12.9,4.3-21.5,4.3ZM321.5,399.6c8.3,0,15.6-2.2,22-6.6,6.4-4.4,11.7-10.5,15.9-18.2,4.2-7.7,7.2-16.6,8.8-26.7,1.7-10.1,1.7-18.9,0-26.4-1.7-7.5-5-13.4-10-17.6-5-4.2-11.7-6.3-20-6.3s-16.3,2.3-22.9,6.8c-6.6,4.5-11.9,10.6-16,18.1-4.1,7.6-6.9,16-8.5,25.4-1.5,9.5-1.5,18.2.1,26,1.6,7.8,5,14,10,18.6,5,4.6,11.8,6.9,20.4,6.9Z"/>
      </g>
      <g class="st1">
        <path class="st2" d="M519.3,418.8c-13.8,0-25.8-2.9-36-8.8s-18.2-14.3-23.8-25.2-8.4-24-8.4-39.2,2.2-28.3,6.7-41.8c4.5-13.6,10.9-25.7,19.3-36.5,8.4-10.8,18.5-19.3,30.4-25.7,11.9-6.3,25.2-9.5,40-9.5s18,1.3,25.8,4c7.9,2.7,14.7,6.6,20.5,11.7,5.8,5.1,10.3,11.4,13.5,18.7,3.2,7.4,4.9,15.8,4.9,25.2h-23.2c-.2-6.2-1.5-11.6-3.7-16.4-2.2-4.7-5.3-8.7-9.1-12-3.8-3.3-8.3-5.7-13.3-7.4-5-1.7-10.5-2.5-16.4-2.5-11.4,0-21.6,2.6-30.6,7.8-9,5.2-16.7,12.2-23,21-6.3,8.8-11.1,18.6-14.5,29.5-3.3,10.9-5,21.9-5,33.1s2,21,6,28.8c4,7.8,9.5,13.7,16.5,17.6,7,3.9,15.1,5.9,24.2,5.9s12.2-.8,18.1-2.5c5.9-1.7,11.4-4.1,16.6-7.4,5.2-3.3,9.7-7.2,13.7-12,4-4.7,7.1-10.2,9.4-16.4h23.3c-3.2,9.3-7.5,17.6-12.9,24.9-5.5,7.3-11.8,13.6-19.1,18.8-7.3,5.2-15.2,9.2-23.6,11.9-8.5,2.7-17.3,4.1-26.4,4.1Z"/>
        <path class="st2" d="M675.3,419.3c-11.3,0-20.8-2.9-28.6-8.7-7.7-5.8-13.2-14-16.3-24.7-3.1-10.6-3.5-23.1-1.2-37.5,2.4-14.5,7-27,13.7-37.4,6.7-10.5,14.9-18.5,24.5-24.2,9.7-5.7,20.2-8.5,31.5-8.5s15.5,1.4,20.3,4.3c4.7,2.9,8.2,6.2,10.3,9.9,2.2,3.7,3.8,6.8,4.9,9.3h1.8l3.5-21.9h22.1l-22.6,136.5h-21.4l3.4-21.1h-2.6c-2,2.7-4.8,5.9-8.3,9.7-3.5,3.8-8.1,7.1-13.8,10-5.7,2.9-12.9,4.3-21.5,4.3ZM682.2,399.6c8.3,0,15.6-2.2,22-6.6,6.4-4.4,11.7-10.5,15.9-18.2,4.2-7.7,7.2-16.6,8.8-26.7,1.7-10.1,1.7-18.9,0-26.4-1.7-7.5-5-13.4-10-17.6-5-4.2-11.7-6.3-20-6.3s-16.3,2.3-22.9,6.8c-6.6,4.5-11.9,10.6-16,18.1-4.1,7.6-6.9,16-8.5,25.4-1.5,9.5-1.5,18.2.1,26,1.6,7.8,5,14,10,18.6,5,4.6,11.8,6.9,20.4,6.9Z"/>
        <path class="st2" d="M778.1,416.3l22.6-136.5h21.2l-3.4,21h1.5c3.6-6.9,9-12.5,16.2-16.7s14.9-6.3,23-6.3,3.5,0,5.7.1c2.2,0,3.9.2,5.2.2l-3.7,22.1c-1-.2-2.7-.4-5.2-.7-2.5-.3-5.1-.5-7.8-.5-6.5,0-12.6,1.4-18.2,4.1s-10.3,6.5-14,11.2c-3.7,4.8-6.1,10.2-7.1,16.4l-14.2,85.4h-22Z"/>
      </g>
    </g>
  </g>
  <g>
    <path class="st2" d="M27.2,167.9L53.1,11.5h46c8.7,0,16.1,2,22.2,5.9,6.1,3.9,10.4,9.3,13.1,16.2,2.7,6.9,3.3,14.8,1.7,23.7-1.5,8.9-4.7,16.8-9.6,23.6-4.9,6.9-11.1,12.2-18.4,16.1-7.3,3.9-15.4,5.8-24.1,5.8h-43.5l.7-4.8h43.5c7.8,0,14.9-1.7,21.5-5.2,6.6-3.5,12.1-8.3,16.5-14.4,4.4-6.1,7.3-13.2,8.6-21.2,1.3-8,.8-15-1.6-21.2-2.4-6.2-6.3-11-11.7-14.5-5.4-3.5-12-5.2-19.8-5.2h-41.2l-25.1,151.6h-4.8Z"/>
    <path class="st2" d="M154,167.9l19.4-117.4h4.8l-3,18.7h.6c3.8-6.1,9.1-11,16-14.6,6.9-3.7,14.3-5.5,22.4-5.5h2.5l-.7,4.8h-2.5c-6.9,0-13.2,1.5-19.2,4.6-5.9,3-10.8,7.2-14.8,12.5-4,5.3-6.5,11.4-7.6,18.2l-13,78.7h-4.8Z"/>
    <path class="st2" d="M261.9,170.5c-8,0-15.1-2-21.1-6.1-6-4.1-10.7-9.7-14-17-3.3-7.2-5-15.5-5-24.8s1.5-17.8,4.4-26.5c2.9-8.7,7.1-16.6,12.4-23.7,5.4-7.1,11.7-12.8,18.9-17.1,7.2-4.3,15.2-6.4,23.8-6.4s15,2,21,6.1c5.9,4.1,10.6,9.7,13.9,16.9,3.3,7.2,5,15.4,5,24.7s-1.5,17.7-4.4,26.5c-2.9,8.7-7.1,16.7-12.4,23.8-5.3,7.1-11.6,12.8-18.8,17.1-7.2,4.3-15.1,6.4-23.7,6.4ZM262,165.6c7.9,0,15.2-2,21.8-6.1,6.6-4.1,12.4-9.4,17.2-16.1,4.9-6.7,8.6-14.1,11.3-22.2,2.7-8.1,4-16.2,4-24.4s-1.4-15.9-4.3-22.4c-2.9-6.5-6.9-11.5-12.2-15.2-5.3-3.7-11.5-5.5-18.6-5.5s-14.6,1.9-21.2,5.8c-6.6,3.8-12.4,9.1-17.4,15.6-5,6.6-8.9,13.9-11.8,22.1-2.8,8.2-4.3,16.5-4.3,25.1,0,12.7,3.2,23.1,9.6,31.2,6.4,8,15,12.1,25.8,12.1Z"/>
    <path class="st2" d="M382.8,170.5c-11.8,0-20.8-4.3-27.2-12.8-6.4-8.5-9.6-19.5-9.6-33s1.3-17.5,3.8-26.4c2.6-8.9,6.2-17.1,11.1-24.6,4.8-7.5,10.7-13.5,17.6-18.1,6.9-4.5,14.8-6.8,23.6-6.8s11.9,1.3,16.8,3.8c4.9,2.6,8.9,6.2,12,11,3.1,4.8,5.1,10.4,6,16.9h.7l11.4-69.1h4.8l-25.9,156.4h-4.8l4.9-29.4h-.6c-3.1,6.5-7,12.2-11.7,17-4.6,4.8-9.7,8.5-15.4,11.1-5.6,2.6-11.6,3.9-17.8,3.9ZM382.9,165.6c8,0,15.3-2.2,21.6-6.5,6.4-4.3,11.8-10,16.2-17,4.4-7,7.8-14.6,10.1-22.9,2.3-8.3,3.5-16.4,3.5-24.4,0-12.1-2.8-22-8.3-29.7-5.6-7.7-13.5-11.5-23.9-11.5s-15,2.1-21.4,6.4c-6.3,4.2-11.7,9.8-16.2,16.8-4.4,7-7.8,14.6-10.2,22.9-2.3,8.3-3.5,16.5-3.5,24.7,0,12,2.7,21.9,8.2,29.6,5.5,7.7,13.4,11.5,23.8,11.5Z"/>
    <path class="st2" d="M511.3,169.6c-8,0-14.8-1.7-20.6-5.1-5.7-3.4-9.9-8.1-12.5-14.2-2.6-6.1-3.3-13.1-1.9-21l13-78.7h4.8l-13,78.7c-1.8,10.6.2,19.2,5.8,25.7,5.6,6.5,13.8,9.8,24.4,9.8s14-1.5,20.3-4.6c6.3-3,11.5-7.2,15.7-12.6,4.2-5.4,6.9-11.5,8-18.3l13-78.7h4.8l-19.4,117.4h-4.8l4.2-25.2h1.3c-4.1,9-10,15.7-17.9,20.2-7.9,4.5-16.3,6.7-25.2,6.7Z"/>
    <path class="st2" d="M637.1,169.6c-8,0-15.1-2-21.1-6-6-4-10.7-9.6-14-16.7-3.3-7.1-5-15.3-5-24.6s1.5-17.8,4.4-26.5c2.9-8.7,7.1-16.6,12.4-23.7,5.4-7.1,11.6-12.7,18.8-16.9,7.2-4.2,15.1-6.3,23.7-6.3s12.1,1.2,16.5,3.5c4.4,2.3,8,5,10.8,8.2s4.8,6,6.1,8.6c1.3,2.6,2.1,4.1,2.3,4.6l-4.4,2.1c-.2-.6-.9-2-2.1-4.3-1.2-2.3-3-4.8-5.4-7.6-2.4-2.7-5.5-5.1-9.4-7.1-3.9-2-8.7-3-14.4-3-8.3,0-15.7,2-22.4,6-6.7,4-12.4,9.4-17.2,16.1-4.8,6.7-8.5,14.2-11.1,22.4-2.6,8.2-3.9,16.4-3.9,24.8s1.4,15.8,4.3,22.1c2.9,6.3,6.9,11.1,12.2,14.5,5.3,3.4,11.5,5.1,18.7,5.1s11.2-1,16-3.1c4.8-2.1,8.9-4.6,12.3-7.5,3.4-2.9,6.1-5.5,8.1-7.8,2-2.3,3.2-3.8,3.5-4.3l3.9,2.8c-.4.5-1.6,2-3.8,4.6-2.2,2.6-5.1,5.4-8.9,8.5-3.8,3.1-8.3,5.8-13.5,8.1-5.2,2.3-11.1,3.5-17.6,3.5Z"/>
    <path class="st2" d="M756.6,50.6l-.8,4.8h-46.4l.8-4.8h46.4ZM732.1,22.6h4.8l-20.4,122.9c-1.2,7.2-.3,12.4,2.7,15.7,3,3.3,7.6,4.1,14,2.5.6-.1,1.2-.3,1.8-.5.7-.2,1.3-.3,1.8-.5l.4,4.7c-.7.1-1.4.3-2,.5-.7.2-1.3.3-2,.5-8.1,1.9-14.1.6-17.8-3.9-3.8-4.5-5-10.8-3.7-18.9l20.4-122.9Z"/>
    <path class="st2" d="M762.3,167.9l19.4-117.4h4.8l-19.4,117.4h-4.8ZM788.5,23.8c-1.3,0-2.4-.5-3.2-1.5-.8-1-1.1-2.1-.9-3.5.2-1.4.9-2.6,2-3.5,1.2-.9,2.4-1.4,3.7-1.4s2.5.5,3.3,1.4c.8.9,1,2.1.8,3.5-.2,1.3-.9,2.5-2,3.5-1.1,1-2.4,1.5-3.8,1.5Z"/>
    <path class="st2" d="M850.3,170.5c-8,0-15.1-2-21.1-6.1-6-4.1-10.7-9.7-14-17-3.3-7.2-5-15.5-5-24.8s1.5-17.8,4.4-26.5c2.9-8.7,7.1-16.6,12.4-23.7,5.4-7.1,11.7-12.8,18.9-17.1,7.2-4.3,15.2-6.4,23.8-6.4s15,2,21,6.1c5.9,4.1,10.6,9.7,13.9,16.9,3.3,7.2,5,15.4,5,24.7s-1.5,17.7-4.4,26.5c-2.9,8.7-7.1,16.7-12.4,23.8-5.3,7.1-11.6,12.8-18.8,17.1-7.2,4.3-15.1,6.4-23.7,6.4ZM850.4,165.6c7.9,0,15.2-2,21.8-6.1,6.6-4.1,12.4-9.4,17.2-16.1,4.9-6.7,8.6-14.1,11.3-22.2,2.7-8.1,4-16.2,4-24.4s-1.4-15.9-4.3-22.4c-2.9-6.5-6.9-11.5-12.2-15.2-5.3-3.7-11.5-5.5-18.6-5.5s-14.6,1.9-21.2,5.8c-6.6,3.8-12.4,9.1-17.4,15.6-5,6.6-8.9,13.9-11.8,22.1-2.8,8.2-4.3,16.5-4.3,25.1,0,12.7,3.2,23.1,9.6,31.2,6.4,8,15,12.1,25.8,12.1Z"/>
    <path class="st2" d="M951.2,89.2l-13,78.7h-4.8l19.4-117.4h4.8l-4.2,25.2h-1.3c4.1-9,10.2-15.7,18.4-20.2,8.2-4.5,16.7-6.7,25.6-6.7s14.9,1.7,20.4,5.1c5.6,3.4,9.6,8.1,12.1,14.1,2.5,6,3.1,13.1,1.7,21.1l-13,78.7h-4.8l13-78.7c1.8-10.6,0-19.2-5.4-25.7-5.4-6.5-13.4-9.8-24-9.8s-14.1,1.5-20.5,4.6c-6.4,3-11.8,7.2-16.2,12.6-4.4,5.4-7.1,11.5-8.2,18.3Z"/>
  </g>
</svg>